<?xml version="1.0" standalone="no"?>
<svg version="1.0" xmlns="http://www.w3.org/2000/svg"
 width="500.000000pt" height="500.000000pt" viewBox="0 0 500.000000 500.000000"
 preserveAspectRatio="xMidYMid meet">
 <!-- TODO: Use this SVG for my logo -->
<circle
    fill="transparent"
    stroke="black"
    stroke-width="30"
    stroke-dash-array="1570.796 1570.796"
    stroke-dash-offset="0"
    r="235"
    cx="250"
    cy="250"
  />
<g transform="translate(0.000000,500.000000) scale(0.100000,-0.100000)"
fill="#000000" stroke="none">
<!-- <path d="M2315 4994 c-16 -2 -73 -9 -125 -15 -433 -49 -871 -232 -1240 -517
-109 -85 -327 -303 -412 -412 -286 -370 -453 -770 -520 -1245 -7 -50 -13 -185
-13 -305 0 -352 54 -632 181 -945 127 -310 305 -577 549 -820 399 -400 878
-635 1460 -717 117 -17 493 -17 610 0 475 67 875 234 1245 520 109 85 327 303
412 412 286 370 453 770 520 1245 17 117 17 493 0 610 -67 475 -234 875 -520
1245 -85 109 -303 327 -412 412 -365 282 -765 451 -1230 518 -77 11 -451 22
-505 14z m493 -329 c522 -74 1009 -341 1349 -739 280 -327 457 -725 514 -1156
17 -122 17 -418 0 -540 -98 -740 -547 -1369 -1206 -1690 -225 -110 -450 -179
-695 -211 -122 -17 -418 -17 -540 0 -740 98 -1369 547 -1690 1206 -156 318
-224 612 -224 965 0 96 6 218 13 270 98 740 547 1369 1206 1690 270 132 484
190 830 224 73 7 338 -4 443 -19z"/> -->
<path d="M2415 3464 c-158 -15 -367 -98 -477 -191 -214 -180 -338 -480 -338
-818 0 -349 125 -634 354 -806 121 -92 204 -128 351 -155 264 -47 510 15 706
177 32 27 60 45 62 41 3 -4 13 -41 22 -82 28 -117 20 -111 138 -108 l102 3 3
518 2 517 -420 0 -420 0 0 -140 0 -140 278 -2 277 -3 -4 -55 c-11 -168 -106
-314 -258 -392 -90 -47 -157 -62 -278 -62 -302 -1 -505 167 -582 482 -23 94
-23 341 1 437 70 288 250 466 499 494 276 31 483 -91 558 -329 l17 -55 148 -3
c81 -1 152 2 157 7 13 13 -36 188 -74 263 -126 250 -356 387 -674 401 -60 2
-128 3 -150 1z"/>
</g>
</svg>
