<svg
  version="1.0"
  xmlns="http://www.w3.org/2000/svg"
  width="500"
  height="500"
  viewBox="0 0 500 500"
  preserveAspectRatio="xMidYMid meet"
>
  <circle
    fill="transparent"
    stroke="black"
    stroke-width="30"
    stroke-dash-array="1570.796 1570.796"
    stroke-dash-offset="0"
    r="235"
    cx="250"
    cy="250"
  />
  <g
    transform="translate(0,500) scale(0.1,-0.1)"
    fill="black"
    stroke="none"
  >
    <path 
      d="M2415 3464 c-158 -15 -367 -98 -477 -191 -214 -180 -338 -480 -338
        -818 0 -349 125 -634 354 -806 121 -92 204 -128 351 -155 264 -47 510 15 706
        177 32 27 60 45 62 41 3 -4 13 -41 22 -82 28 -117 20 -111 138 -108 l102 3 3
        518 2 517 -420 0 -420 0 0 -140 0 -140 278 -2 277 -3 -4 -55 c-11 -168 -106
        -314 -258 -392 -90 -47 -157 -62 -278 -62 -302 -1 -505 167 -582 482 -23 94
        -23 341 1 437 70 288 250 466 499 494 276 31 483 -91 558 -329 l17 -55 148 -3
        c81 -1 152 2 157 7 13 13 -36 188 -74 263 -126 250 -356 387 -674 401 -60 2
        -128 3 -150 1z"
    />
  </g>
</svg>